<?xml version="1.0" encoding="UTF-8" standalone="no"?>
<svg width="450px" height="141px" viewBox="0 0 450 141" version="1.1" xmlns="http://www.w3.org/2000/svg" xmlns:xlink="http://www.w3.org/1999/xlink" xmlns:sketch="http://www.bohemiancoding.com/sketch/ns">
    <!-- Generator: Sketch 3.2.2 (9983) - http://www.bohemiancoding.com/sketch -->
    <title>Group</title>
    <desc>Created with Sketch.</desc>
    <defs>
        <linearGradient x1="8.80079024%" y1="26.5036249%" x2="38.9903248%" y2="40.6192636%" id="linearGradient-1">
            <stop stop-color="#D9E0E2" offset="0%"></stop>
            <stop stop-color="#FFFFFF" offset="75%"></stop>
        </linearGradient>
        <linearGradient x1="-4.90021019%" y1="41.3859505%" x2="87.0835752%" y2="60.3349166%" id="linearGradient-2">
            <stop stop-color="#D9E0E2" offset="0%"></stop>
            <stop stop-color="#FFFFFF" offset="75%"></stop>
        </linearGradient>
        <linearGradient x1="10.1530224%" y1="54.0791429%" x2="106.954306%" y2="38.0487143%" id="linearGradient-3">
            <stop stop-color="#FFFFFF" offset="0%"></stop>
            <stop stop-color="#FFFFFF" offset="70%"></stop>
            <stop stop-color="#D9E0E2" offset="100%"></stop>
        </linearGradient>
    </defs>
    <g id="Page-1" stroke="none" stroke-width="1" fill="none" fill-rule="evenodd" sketch:type="MSPage">
        <g id="tnw-logo-light" sketch:type="MSLayerGroup" transform="translate(0.000000, -1.000000)">
            <g id="Group" sketch:type="MSShapeGroup">
                <path d="M401.838,1.005 L379.82,65.927 L366.252,13.005 C363.176,1 359.219,1 356.967,1 C356.967,1 352.029,1.001 347.094,2.413 L336.455,49.558 L356.994,141.005 L397.994,141.005 L449.838,1.005 L401.838,1.005 L401.838,1.005 Z" id="Shape" fill="url(#linearGradient-1)"></path>
                <path d="M298.326,66.089 L281.484,13.116 C277.884,1.795 272.718,1.001 269.589,1.001 C269.589,1.001 263.714,1.001 257.484,2.413 L257.484,84.684 L279.484,141.006 L285.916,141.005 L307.439,139.593 L298.326,66.089 L298.326,66.089 Z" id="Shape" fill="url(#linearGradient-2)"></path>
                <path d="M356.967,1.008 L319.742,1.017 C316.959,1.017 309.601,1.008 307.572,13.005 L285.916,141.005 L319.857,141.005 L347.777,13.005 C350.395,1.005 356.135,1.008 356.967,1.008 L356.967,1.008 Z" id="Shape" fill="#FFFFFF"></path>
                <path d="M131.484,2.413 C131.484,2.413 125.484,1.005 119.486,1.005 L0,1.005 L14.812,41.005 L51.484,41.005 L51.484,141.005 L91.484,141.005 L91.484,41.005 L131.484,41.005 L131.484,2.413 L131.484,2.413 Z" id="Shape" fill="url(#linearGradient-3)"></path>
                <path d="M231.484,1.001 C224.857,1.001 219.484,6.378 219.484,13.005 L219.484,63.48 L176.343,8.933 C172.417,3.747 166.103,1.027 160.413,1.027 L119.485,1.006 C119.485,1.006 129.483,1.006 129.483,13.007 L129.483,141.006 L169.483,141.006 L169.483,64.731 L223.919,133.565 C227.9,138.498 233.742,141.042 239.623,141.004 L259.484,141.004 L259.484,13.004 C259.484,5.912 264.004,1 269.589,1 L231.484,1 L231.484,1.001 Z" id="Shape" fill="#FFFFFF"></path>
            </g>
        </g>
    </g>
</svg>